<svg width="195" height="80" viewBox="0 0 195 80" fill="none" xmlns="http://www.w3.org/2000/svg">
<g clip-path="url(#clip0_10664_95)">
<path d="M62.38 63.18C59.54 63.18 58.12 61.78 58.12 58.98C58.12 56.78 58.94 54 60.58 50.64C60.66 50.48 61.04 49.78 61.72 48.54C62.44 47.26 63.46 45.44 64.78 43.08H61.66L61.54 42.96L61.6 42.6L61.66 42.54H65.08L69.4 34.98C69.76 35.14 70.18 35.22 70.66 35.22C71.22 35.22 71.82 35.02 72.46 34.62C73.14 34.26 73.6 33.86 73.84 33.42L74.02 33.48L68.62 42.54H72.76L72.82 42.6V42.96L72.7 43.08H68.32L64.24 50.28C61.8 54.56 60.58 57.86 60.58 60.18C60.58 61.82 61.22 62.64 62.5 62.64C64.5 62.64 66.52 61.52 68.56 59.28C69.12 58.68 69.78 57.78 70.54 56.58C71.3 55.38 71.94 54.24 72.46 53.16C72.54 52.96 72.64 52.9 72.76 52.98C72.92 53.02 72.96 53.14 72.88 53.34C72.28 54.54 71.64 55.68 70.96 56.76C70.32 57.84 69.58 58.84 68.74 59.76C66.66 62.04 64.54 63.18 62.38 63.18ZM84.2763 40.2C82.9963 40.2 82.3563 39.58 82.3563 38.34C82.3563 36.98 82.9763 36.3 84.2163 36.3C85.4963 36.3 86.1363 36.92 86.1363 38.16C86.1363 39.52 85.5163 40.2 84.2763 40.2ZM77.1962 63.6C74.5562 63.6 73.2362 62.14 73.2362 59.22C73.2362 57.1 73.8562 54.86 75.0962 52.5L79.5963 43.68H79.7762C79.8962 43.84 80.1363 43.92 80.4963 43.92C81.2562 43.92 82.2562 43.46 83.4963 42.54L83.6163 42.66L78.5162 52.56C76.3962 56.64 75.3363 59.48 75.3363 61.08C75.3363 61.8 75.5362 62.3 75.9362 62.58C76.3362 62.86 76.7962 63 77.3163 63C77.8762 63 78.4162 62.88 78.9362 62.64C79.4962 62.4 79.9762 62.14 80.3762 61.86C81.4563 61.02 82.3563 60.06 83.0763 58.98C83.8363 57.86 84.4963 56.74 85.0562 55.62C85.6162 54.5 86.1162 53.56 86.5562 52.8C86.6763 52.6 86.7963 52.54 86.9163 52.62C87.0363 52.66 87.0563 52.78 86.9762 52.98C86.1763 54.66 85.2963 56.38 84.3362 58.14C83.3763 59.9 82.1563 61.3 80.6762 62.34C80.1562 62.7 79.5962 63 78.9962 63.24C78.4362 63.48 77.8362 63.6 77.1962 63.6ZM92.8792 63.48C89.6392 63.48 88.0192 61.34 88.0192 57.06C88.0192 54.5 88.5792 51.52 89.6992 48.12C90.2192 46.56 90.7792 45.06 91.3792 43.62C91.9792 42.18 92.6192 40.84 93.2992 39.6C94.1392 38.08 95.0192 36.64 95.9392 35.28C96.8592 33.88 97.8392 32.56 98.8792 31.32C101.879 27.6 104.439 25.74 106.559 25.74C107.439 25.74 107.879 26.16 107.879 27C107.879 28.12 107.419 29.84 106.499 32.16C103.419 39.8 98.4192 46.76 91.4992 53.04C90.8192 55.56 90.4792 57.58 90.4792 59.1C90.4792 61.7 91.2992 63 92.9392 63C93.4992 63 94.0392 62.9 94.5592 62.7C95.0792 62.46 95.5392 62.2 95.9392 61.92C97.0192 61.08 97.9392 60.1 98.6992 58.98C99.4592 57.86 100.119 56.74 100.679 55.62C101.239 54.5 101.739 53.56 102.179 52.8C102.299 52.6 102.419 52.54 102.539 52.62C102.659 52.66 102.679 52.78 102.599 52.98C101.799 54.66 100.919 56.38 99.9592 58.14C98.9992 59.9 97.7792 61.3 96.2992 62.34C95.2192 63.1 94.0792 63.48 92.8792 63.48ZM91.6792 52.44C92.4792 51.76 93.3192 50.92 94.1992 49.92C95.0792 48.92 96.0192 47.78 97.0192 46.5C98.0192 45.22 99.0392 43.8 100.079 42.24C101.119 40.68 102.159 39 103.199 37.2C105.999 32.44 107.399 29.12 107.399 27.24C107.399 26.56 107.179 26.22 106.739 26.22C105.259 26.22 102.619 29.4 98.8192 35.76C97.8192 37.56 96.9192 39.3 96.1192 40.98C95.1592 43.1 94.2992 45.12 93.5392 47.04C92.8192 48.92 92.1992 50.72 91.6792 52.44ZM108.463 63.48C105.223 63.48 103.603 61.34 103.603 57.06C103.603 54.5 104.163 51.52 105.283 48.12C105.803 46.56 106.363 45.06 106.963 43.62C107.563 42.18 108.203 40.84 108.883 39.6C109.723 38.08 110.603 36.64 111.523 35.28C112.443 33.88 113.423 32.56 114.463 31.32C117.463 27.6 120.023 25.74 122.143 25.74C123.023 25.74 123.463 26.16 123.463 27C123.463 28.12 123.003 29.84 122.083 32.16C119.003 39.8 114.003 46.76 107.083 53.04C106.403 55.56 106.063 57.58 106.063 59.1C106.063 61.7 106.883 63 108.523 63C109.083 63 109.623 62.9 110.143 62.7C110.663 62.46 111.123 62.2 111.523 61.92C112.603 61.08 113.523 60.1 114.283 58.98C115.043 57.86 115.703 56.74 116.263 55.62C116.823 54.5 117.323 53.56 117.763 52.8C117.883 52.6 118.003 52.54 118.123 52.62C118.243 52.66 118.263 52.78 118.183 52.98C117.383 54.66 116.503 56.38 115.543 58.14C114.583 59.9 113.363 61.3 111.883 62.34C110.803 63.1 109.663 63.48 108.463 63.48ZM107.263 52.44C108.063 51.76 108.903 50.92 109.783 49.92C110.663 48.92 111.603 47.78 112.603 46.5C113.603 45.22 114.623 43.8 115.663 42.24C116.703 40.68 117.743 39 118.783 37.2C121.583 32.44 122.983 29.12 122.983 27.24C122.983 26.56 122.763 26.22 122.323 26.22C120.843 26.22 118.203 29.4 114.403 35.76C113.403 37.56 112.503 39.3 111.703 40.98C110.743 43.1 109.883 45.12 109.123 47.04C108.403 48.92 107.783 50.72 107.263 52.44ZM133.826 63.18C131.746 63.18 130.706 61.74 130.706 58.86C130.706 57.74 130.886 56.46 131.246 55.02C128.446 60.42 125.666 63.12 122.906 63.12C121.586 63.12 120.586 62.46 119.906 61.14C119.346 60.14 119.066 58.88 119.066 57.36C119.066 56.12 119.246 54.82 119.606 53.46C120.286 51.1 121.726 48.88 123.926 46.8C126.366 44.56 128.686 43.44 130.886 43.44C132.886 43.44 133.886 44.64 133.886 47.04C133.886 48.08 133.666 49.3 133.226 50.7L136.886 43.5H137.066C137.186 43.7 137.446 43.8 137.846 43.8C138.646 43.8 139.666 43.32 140.906 42.36L141.026 42.48L135.926 52.44C133.886 56.4 132.866 59.4 132.866 61.44C132.866 62.24 133.226 62.64 133.946 62.64C134.426 62.64 135.006 62.46 135.686 62.1C136.366 61.74 137.086 61.14 137.846 60.3C138.806 59.18 139.626 58.12 140.306 57.12C141.026 56.08 141.846 54.68 142.766 52.92C142.886 52.72 143.006 52.62 143.126 52.62C143.366 52.62 143.366 52.82 143.126 53.22C142.406 54.58 141.626 55.94 140.786 57.3C139.986 58.62 139.006 59.86 137.846 61.02C136.406 62.46 135.066 63.18 133.826 63.18ZM123.146 62.7C125.386 62.7 128.266 59.54 131.786 53.22C132.906 51.22 133.466 49.2 133.466 47.16C133.466 45 132.766 43.92 131.366 43.92C129.846 43.92 128.126 45.18 126.206 47.7C125.446 48.74 124.786 49.76 124.226 50.76C123.706 51.76 123.286 52.72 122.966 53.64C122.126 56.04 121.706 58.2 121.706 60.12C121.706 61.84 122.186 62.7 123.146 62.7ZM150.922 63.24C148.522 63.24 147.322 62.18 147.322 60.06C147.322 58.38 147.982 56.46 149.302 54.3C149.742 53.54 150.962 51.84 152.962 49.2C154.282 47.44 154.942 46.2 154.942 45.48C154.942 44.8 154.382 44.46 153.262 44.46C152.502 44.46 151.662 44.48 150.742 44.52C149.862 44.56 149.142 44.6 148.582 44.64C148.462 45.28 148.282 46.02 148.042 46.86C147.802 47.7 147.522 48.58 147.202 49.5C147.002 50.06 146.682 50.82 146.242 51.78C145.842 52.74 145.302 53.76 144.622 54.84C144.502 55 144.402 55.08 144.322 55.08C144.282 55.08 144.262 55.04 144.262 54.96C144.262 54.76 144.342 54.5 144.502 54.18C144.822 53.62 145.182 52.94 145.582 52.14C145.982 51.3 146.362 50.38 146.722 49.38C147.042 48.5 147.322 47.58 147.562 46.62C147.842 45.62 148.002 44.94 148.042 44.58C147.082 43.98 146.602 43.08 146.602 41.88C146.602 40.52 147.082 39.84 148.042 39.84C148.722 39.84 149.062 40.46 149.062 41.7C149.062 41.98 149.022 42.32 148.942 42.72C148.862 43.12 148.762 43.6 148.642 44.16C149.202 44.12 150.082 44.08 151.282 44.04C152.522 43.96 153.702 43.92 154.822 43.92C156.862 43.92 157.882 44.54 157.882 45.78C157.882 47.1 156.302 49.82 153.142 53.94C152.462 54.94 151.702 56.08 150.862 57.36C150.062 58.6 149.662 59.88 149.662 61.2C149.662 61.56 149.742 61.9 149.902 62.22C150.062 62.54 150.402 62.7 150.922 62.7C152.642 62.7 154.542 61.66 156.622 59.58C157.662 58.54 158.622 57.42 159.502 56.22C160.382 55.02 161.182 53.68 161.902 52.2C162.062 51.88 162.202 51.72 162.322 51.72C162.402 51.72 162.442 51.78 162.442 51.9C162.442 52.1 162.382 52.32 162.262 52.56C161.582 53.96 160.762 55.32 159.802 56.64C158.842 57.92 157.782 59.14 156.622 60.3C154.662 62.26 152.762 63.24 150.922 63.24ZM166.668 63.3C165.228 63.3 164.208 62.7 163.608 61.5C163.008 60.3 162.708 58.98 162.708 57.54C162.708 56.06 162.928 54.78 163.368 53.7C163.928 52.22 164.748 50.72 165.828 49.2C166.908 47.64 168.208 46.34 169.728 45.3C171.248 44.22 172.908 43.68 174.708 43.68C176.708 43.68 177.708 44.84 177.708 47.16C177.708 48.32 177.468 49.56 176.988 50.88L186.768 31.68H186.888C187.048 31.84 187.328 31.92 187.728 31.92C188.568 31.92 189.568 31.46 190.728 30.54L190.848 30.66L181.848 47.88C178.368 54.56 176.628 58.94 176.628 61.02C176.628 62.1 177.068 62.64 177.948 62.64C178.428 62.64 179.008 62.46 179.688 62.1C180.368 61.74 181.088 61.14 181.848 60.3C182.808 59.18 183.628 58.12 184.308 57.12C185.028 56.08 185.848 54.68 186.768 52.92C186.888 52.72 187.008 52.62 187.128 52.62C187.368 52.62 187.368 52.82 187.128 53.22C186.408 54.58 185.628 55.94 184.788 57.3C183.988 58.62 183.008 59.86 181.848 61.02C180.408 62.46 179.068 63.18 177.828 63.18C176.828 63.18 175.988 62.9 175.308 62.34C174.668 61.78 174.348 60.82 174.348 59.46C174.348 58.18 174.568 56.76 175.008 55.2C172.208 60.6 169.428 63.3 166.668 63.3ZM167.088 62.76C168.168 62.76 169.448 61.96 170.928 60.36C172.408 58.76 173.948 56.44 175.548 53.4C175.708 53.08 175.908 52.58 176.148 51.9C176.428 51.18 176.668 50.4 176.868 49.56C177.108 48.68 177.228 47.86 177.228 47.1C177.228 46.3 177.068 45.64 176.748 45.12C176.428 44.6 175.868 44.34 175.068 44.34C174.308 44.34 173.488 44.62 172.608 45.18C171.768 45.7 170.888 46.6 169.968 47.88C168.448 49.92 167.348 51.9 166.668 53.82C166.588 54.06 166.448 54.54 166.248 55.26C166.048 55.94 165.868 56.72 165.708 57.6C165.548 58.44 165.468 59.26 165.468 60.06C165.468 60.82 165.588 61.46 165.828 61.98C166.068 62.5 166.488 62.76 167.088 62.76Z" fill="#4F3451"/>
<path d="M34.8 71.24C34.5867 71.1333 34.3733 71.0533 34.16 71C33.9467 70.9467 33.7067 70.8667 33.44 70.76C30.6133 69.8 28.5867 68.28 27.36 66.2C22.9867 65.56 19.4667 63.9867 16.8 61.48C14.0267 58.76 12.64 55.2133 12.64 50.84C12.64 44.9733 14.7733 39.9067 19.04 35.64C23.2533 31.4267 28.32 29.32 34.24 29.32C38.4 29.32 41.68 30.4133 44.08 32.6C45.2533 31.6933 46.6933 30.5733 48.4 29.24C50.16 27.8533 52.1867 26.2533 54.48 24.44V22.92C54.48 16.1467 56.0533 12.76 59.2 12.76C59.9467 12.76 60.6133 13.0533 61.2 13.64C61.84 14.1733 62.16 14.8133 62.16 15.56C62.16 17.6933 60 20.6533 55.68 24.44C55.7867 25.1867 56.0267 26.3333 56.4 27.88C56.7733 29.3733 57.3067 31.24 58 33.48C59.12 37.2133 59.68 40.3067 59.68 42.76C59.68 49.6933 56.5867 55.48 50.4 60.12C44.64 64.3333 38.2133 66.44 31.12 66.44C30.6933 66.44 30.24 66.4133 29.76 66.36C29.28 66.36 28.8267 66.3333 28.4 66.28C29.4667 68.04 31.0933 69.2933 33.28 70.04C33.76 70.2533 34.1067 70.36 34.32 70.36C34.48 70.36 34.8 70.28 35.28 70.12C35.7067 69.96 36 69.88 36.16 69.88C36.48 69.88 36.64 70.04 36.64 70.36C36.64 70.9467 36.0267 71.24 34.8 71.24ZM55.52 23.48C59.4667 20.0133 61.44 17.24 61.44 15.16C61.44 14.0933 60.7467 13.56 59.36 13.56C56.7467 13.56 55.44 16.12 55.44 21.24C55.44 21.6133 55.44 21.9867 55.44 22.36C55.44 22.68 55.4667 23.0533 55.52 23.48ZM27.76 65C31.0133 65 34.5067 64.04 38.24 62.12C39.8933 61.2667 41.4667 60.3333 42.96 59.32C44.5067 58.2533 45.9467 57.08 47.28 55.8C49.2533 53.9333 50.5867 52.2533 51.28 50.76C53.8933 45.6933 55.2 40.4667 55.2 35.08C55.2 35.4533 55.1467 34.84 55.04 33.24C54.9333 31.64 54.7733 29.0267 54.56 25.4C53.44 26.2533 52.0533 27.3467 50.4 28.68C48.8 29.96 46.9067 31.48 44.72 33.24C46.5333 35.0533 47.44 37.2933 47.44 39.96C47.44 43.5333 46.16 46.5733 43.6 49.08C40.9867 51.64 37.8933 52.92 34.32 52.92C32.2933 52.92 30.6133 52.4667 29.28 51.56C27.7333 55.08 26.96 58.1467 26.96 60.76C26.96 61.56 27.04 62.3067 27.2 63C27.36 63.7467 27.5467 64.4133 27.76 65ZM26.88 65C26.4 63.88 26.16 62.5733 26.16 61.08C26.16 58.1467 26.96 54.76 28.56 50.92C27.28 49.6933 26.64 48.2 26.64 46.44C26.64 45.8 26.8 45.0533 27.12 44.2C27.5467 43.08 27.9733 42.52 28.4 42.52C28.5067 42.52 28.6133 42.5733 28.72 42.68C28.6133 43 28.48 43.1867 28.32 43.24H28.4C27.6533 44.3067 27.28 45.4267 27.28 46.6C27.28 47.9867 27.7867 49.2133 28.8 50.28C31.2 44.8933 35.84 39.3733 42.72 33.72C40.3733 31.5333 37.4133 30.44 33.84 30.44C28.8267 30.44 24.2667 32.68 20.16 37.16C16.16 41.48 14.16 46.2 14.16 51.32C14.16 54.8933 15.3867 58.0133 17.84 60.68C19.0667 62.0133 20.4267 63.0267 21.92 63.72C23.4133 64.4667 25.0667 64.8933 26.88 65ZM34 52.36C36.88 52.36 39.5467 51.0533 42 48.44C44.4533 45.8267 45.68 43.1067 45.68 40.28C45.68 38.1467 44.9067 36.1733 43.36 34.36C40.0533 37.1333 37.2533 39.9333 34.96 42.76C32.6667 45.5333 30.88 48.28 29.6 51C30.8267 51.9067 32.2933 52.36 34 52.36Z" fill="url(#paint0_linear_10664_95)"/>
</g>
<defs>
<linearGradient id="paint0_linear_10664_95" x1="23" y1="20.5" x2="75.5" y2="75.5" gradientUnits="userSpaceOnUse">
<stop stop-color="#3A343B"/>
<stop offset="1" stop-color="#4F3451"/>
</linearGradient>
<clipPath id="clip0_10664_95">
<rect width="195" height="80" fill="white"/>
</clipPath>
</defs>
</svg>
